<svg height="22" width="248" xmlns="http://www.w3.org/2000/svg" xmlns:xlink="http://www.w3.org/1999/xlink"><mask id="a" fill="#fff"><path d="m.187.131h18.541v20.98h-18.54z" fill="#fff" fill-rule="evenodd"/></mask><mask id="b" fill="#fff"><path d="m.057.145h13.29v17.455h-13.289z" fill="#fff" fill-rule="evenodd"/></mask><g fill="none" fill-rule="evenodd"><path d="m7.595 19.509c-1.376 0-2.448-.396-3.219-1.19-.771-.793-1.157-1.866-1.157-3.217 0-1.724.656-3.159 1.967-4.305l6.037 7.332c-1.099.92-2.308 1.38-3.628 1.38zm-1.989-17.864c.796-.455 1.896-.384 2.606.196.764.626 1.008 1.498.993 2.437-.03 1.824-.99 3.136-2.4 4.23-1.191-1.266-2.183-2.558-2.367-4.31-.11-1.049.344-2.081 1.169-2.554zm13.011 18.158a4.465 4.465 0 0 1 -.845.088c-.664 0-1.245-.21-1.744-.631-.498-.422-1.052-1.083-1.661-1.984.94-1.469 1.412-3.222 1.412-5.26 0-.42-.027-.881-.083-1.38-.028-.177.05-.29.235-.338l1.731-.456-.041-.646c-.37.02-.76.034-1.17.044-.412.01-.853.015-1.322.015a84.177 84.177 0 0 1 -3.172-.06l.028.662 1.717.367a.87.87 0 0 1 .394.176c.088.08.146.211.173.397.056.372.084.857.084 1.455 0 1.459-.305 2.762-.914 3.908l-5.905-6.862c2.829-1.4 4.137-3.034 4.137-5.062 0-1.254-.342-2.317-1.24-3.032-.897-.716-2.003-1.074-3.32-1.074-1.494 0-2.745.421-3.752 1.264-1.007.842-1.51 1.964-1.51 3.364 0 .764.14 1.509.422 2.233.282.725.926 1.714 1.932 2.968-2.677 1.491-4.016 3.371-4.016 5.641 0 1.676.65 3.003 1.951 3.982 1.301.98 2.903 1.47 4.805 1.47 2.03 0 3.872-.637 5.526-1.91 1.025 1.312 2.267 1.969 3.726 1.969a5.25 5.25 0 0 0 2.533-.662l-.11-.646z" fill="#c0a02e" mask="url(#a)" transform="translate(125.384 .189)"/><g fill="#54575a"><path d="m0 2.017h8.104c1.995 0 3.566.548 4.563 1.546.798.798 1.197 1.77 1.197 2.967v.05c0 1.97-1.047 3.067-2.294 3.765 2.02.773 3.267 1.945 3.267 4.289v.05c0 3.192-2.594 4.787-6.533 4.787h-8.304zm10.049 5.161c0-1.147-.898-1.795-2.519-1.795h-3.79v3.69h3.541c1.695 0 2.768-.548 2.768-1.845zm-1.87 5.087h-4.439v3.84h4.564c1.695 0 2.717-.598 2.717-1.895v-.05c0-1.172-.872-1.895-2.842-1.895zm18.231-10.373h3.541l7.48 17.58h-4.014l-1.596-3.915h-7.38l-1.597 3.914h-3.914zm4.04 10.273-2.32-5.66-2.318 5.66zm12.455-10.148h7.98c2.219 0 3.94.623 5.086 1.77.973.973 1.496 2.344 1.496 3.99v.05c0 2.817-1.52 4.588-3.74 5.41l4.264 6.234h-4.488l-3.74-5.585h-3.018v5.585h-3.84zm7.73 8.478c1.87 0 2.943-.998 2.943-2.469v-.05c0-1.646-1.148-2.493-3.018-2.493h-3.815v5.012zm13.859-8.478h3.541l8.179 10.747v-10.747h3.79v17.453h-3.266l-8.453-11.095v11.096h-3.79zm23.439 0h13.167v3.416h-9.35v3.54h8.228v3.417h-8.229v3.665h9.476v3.416h-13.29zm18.752 14.911 2.269-2.718c1.57 1.297 3.216 2.12 5.211 2.12 1.57 0 2.519-.624 2.519-1.646v-.05c0-.973-.599-1.471-3.517-2.22-3.515-.897-5.784-1.87-5.784-5.335v-.05c0-3.167 2.543-5.261 6.109-5.261 2.543 0 4.713.797 6.483 2.219l-1.995 2.892c-1.546-1.072-3.067-1.72-4.538-1.72s-2.244.673-2.244 1.52v.05c0 1.147.748 1.522 3.765 2.294 3.541.923 5.536 2.195 5.536 5.237v.05c0 3.466-2.643 5.41-6.409 5.41-2.643 0-5.311-.921-7.405-2.792m42.705-14.995h3.54l8.18 10.747v-10.747h3.789v17.455h-3.267l-8.452-11.098v11.097h-3.79zm21.17 8.777v-.05c0-4.962 3.914-9.026 9.3-9.026s9.251 4.014 9.251 8.976v.05c0 4.962-3.915 9.026-9.3 9.026-5.387 0-9.252-4.014-9.252-8.976m14.537 0v-.05c0-2.992-2.194-5.486-5.286-5.486s-5.236 2.444-5.236 5.436v.05c0 2.992 2.194 5.486 5.286 5.486s5.236-2.444 5.236-5.436m10.174-8.777h8.104c1.994 0 3.565.548 4.563 1.546.798.798 1.197 1.77 1.197 2.967v.05c0 1.97-1.048 3.067-2.294 3.765 2.02.773 3.266 1.945 3.266 4.289v.05c0 3.192-2.593 4.788-6.533 4.788h-8.303zm10.048 5.162c0-1.148-.897-1.796-2.518-1.796h-3.79v3.69h3.541c1.695 0 2.767-.548 2.767-1.845v-.05zm-1.87 5.086h-4.438v3.84h4.563c1.696 0 2.718-.598 2.718-1.895v-.05c0-1.172-.872-1.895-2.843-1.895zm12.069-10.248h3.84v13.964h8.702v3.49h-12.542z"/><path d="m.057.145h13.166v3.415h-9.35v3.54h8.227v3.417h-8.227v3.666h9.475v3.417h-13.29z" mask="url(#b)" transform="translate(233.816 1.788)"/></g></g></svg>