<?xml version="1.0" encoding="UTF-8"?>
<svg width="282px" height="342px" viewBox="0 0 282 342" version="1.1" xmlns="http://www.w3.org/2000/svg" xmlns:xlink="http://www.w3.org/1999/xlink">
    <title>laurence-king-verlag-gmbh-vector-logo</title>
    <g id="Page-1" stroke="none" stroke-width="1" fill="none" fill-rule="evenodd">
        <g id="laurence-king-verlag-gmbh-vector-logo" transform="translate(0.900000, 0.900000)" fill="#000000" fill-rule="nonzero">
            <path d="M93,167.2 C92.3,166.7 0,99.6 0,99.6 L0,2.84217094e-14 L140.6,109.4 L280.9,0.4 L280.9,100 L188.7,167.2 L280.7,167.2 L280.6,252.2 L0,252.2 L0,167.2 L93,167.2" id="Path"></path>
            <polygon id="Path" points="-7.10542736e-15 272.4 6.4 272.4 6.4 291.6 16.3 291.6 16.3 296.3 -7.10542736e-15 296.3"></polygon>
            <path d="M26.2,272.4 L34.1,272.4 L43.3,296.3 L36.3,296.3 L34.5,291.2 L25.5,291.2 L23.6,296.3 L17.1,296.3 L26.2,272.4 Z M30.1,277.3 L30.1,277.3 L27,286.7 L33,286.7 L30.1,277.3 Z" id="Shape"></path>
            <path d="M66.4,287.2 C66.4,293.7 62.1,296.7 55.9,296.7 C49.7,296.7 45.4,293.7 45.4,287.2 L45.4,272.3 L51.8,272.3 L51.8,286.1 C51.8,289.2 52.7,291.9 55.9,291.9 C59.2,291.9 60,289.2 60,286.1 L60,272.3 L66.4,272.3 L66.4,287.2 Z" id="Path"></path>
            <path d="M70.4,272.4 L81.9,272.4 C86.2,272.4 89.6,274.3 89.6,278.4 C89.9,281.3 87.9,283.9 85,284.4 L85,284.4 C87.1,285 87.2,286.8 88.4,289.7 L90.7,296.2 L84,296.2 L82.6,291.9 C81.3,287.8 80.5,286.8 78.1,286.8 L76.8,286.8 L76.8,296.3 L70.4,296.3 L70.4,272.4 Z M76.8,282.3 L78.5,282.3 C80.6,282.3 83.2,282.3 83.2,279.5 C83.2,277.3 81,276.9 78.5,276.9 L76.8,276.9 L76.8,282.3 Z" id="Shape"></path>
            <polygon id="Path" points="93.3 272.4 110.1 272.4 110.1 276.9 99.6 276.9 99.6 281.8 109.5 281.8 109.5 286.3 99.6 286.3 99.6 291.6 110.5 291.6 110.5 296.1 93.2 296.1 93.2 272.4"></polygon>
            <polygon id="Path" points="114.5 272.4 122.6 272.4 130.7 288.7 130.7 288.7 130.6 272.4 136.4 272.4 136.4 296.3 128.6 296.3 120.2 279.9 120.2 279.9 120.4 296.3 114.5 296.3"></polygon>
            <path d="M161.1,295.8 C158.8,296.4 156.4,296.8 154,296.8 C147.6,296.8 140.2,293.6 140.2,284.5 C140.2,276.2 146,272 153.9,272 C156.3,272.1 158.7,272.5 161,273.2 L160.5,278.4 C158.6,277.3 156.4,276.7 154.3,276.7 C150.3,276.6 146.9,279.7 146.8,283.8 C146.8,284 146.8,284.3 146.8,284.5 C146.8,289.2 150.1,292 154.8,292 C156.9,292 158.9,291.5 160.8,290.8 L161.1,295.8 Z" id="Path"></path>
            <polygon id="Path" points="163.8 272.4 180.7 272.4 180.7 276.9 170.2 276.9 170.2 281.8 180.1 281.8 180.1 286.3 170.2 286.3 170.2 291.6 181.1 291.6 181.1 296.1 163.8 296.1"></polygon>
            <polygon id="Path" points="195.4 272.4 201.8 272.4 201.8 282.2 201.8 282.2 209 272.4 216.7 272.4 207.8 283.6 217.3 296.4 209.2 296.4 201.8 285.5 201.8 285.5 201.8 296.4 195.4 296.4"></polygon>
            <polygon id="Path" points="220.5 272.4 226.9 272.4 226.9 296.3 220.5 296.3"></polygon>
            <polygon id="Path" points="231.8 272.4 239.9 272.4 248 288.7 248 288.7 247.9 272.4 253.7 272.4 253.7 296.3 245.8 296.3 237.4 279.9 237.4 279.9 237.6 296.3 231.7 296.3"></polygon>
            <path d="M280.5,295.7 C277.5,296.5 274.4,296.8 271.2,296.8 C264.8,296.8 257.4,293.6 257.4,284.5 C257.4,275.4 263.8,272 272.5,272 C275,272 277.4,272.3 279.7,273.1 L279.2,278.3 C277.4,277.3 275.4,276.8 273.4,276.8 C268.2,276.8 264,279 264,284.6 C264,289.3 267.3,292.1 272,292.1 C272.8,292.1 273.5,292 274.3,291.7 L274.3,287 L270.6,287 L270.6,282.5 L280.5,282.5 L280.5,295.7 Z" id="Path"></path>
            <polygon id="Path" points="71.7 316.5 78.5 316.5 83.8 335.3 83.8 335.3 89.1 316.5 95.6 316.5 87.4 340.4 79.6 340.4"></polygon>
            <polygon id="Path" points="98.2 316.5 115.1 316.5 115.1 321 104.6 321 104.6 325.9 114.5 325.9 114.5 330.4 104.6 330.4 104.6 335.7 115.5 335.7 115.5 340.2 98.2 340.2 98.2 316.5"></polygon>
            <path d="M119.1,316.5 L130.5,316.5 C134.8,316.5 138.2,318.4 138.2,322.5 C138.5,325.4 136.5,328 133.6,328.5 L133.6,328.5 C135.7,329.1 135.8,330.9 137,333.8 L139.3,340.3 L132.6,340.3 L131.2,336.1 C129.9,332 129.1,331 126.7,331 L125.4,331 L125.4,340.5 L119.1,340.5 L119.1,316.5 Z M125.5,326.4 L127.2,326.4 C129.3,326.4 131.9,326.4 131.9,323.6 C131.9,321.4 129.7,321 127.2,321 L125.5,321 L125.5,326.4 Z" id="Shape"></path>
            <polygon id="Path" points="142.2 316.5 148.6 316.5 148.6 335.7 158.4 335.7 158.4 340.4 142.2 340.4 142.2 316.5"></polygon>
            <path d="M168.4,316.5 L176.2,316.5 L185.4,340.4 L178.4,340.4 L176.6,335.3 L167.7,335.3 L165.8,340.4 L159.3,340.4 L168.4,316.5 Z M172.3,321.4 L172.3,321.4 L169.1,330.8 L175.1,330.8 L172.3,321.4 Z" id="Shape"></path>
            <path d="M210.1,339.7 C207.1,340.5 204,340.8 200.8,340.8 C194.4,340.8 187,337.6 187,328.5 C187,319.4 193.4,316 202.1,316 C204.6,316 207,316.3 209.3,317.1 L208.8,322.3 C207,321.3 205,320.8 203,320.8 C197.8,320.8 193.6,323 193.6,328.6 C193.6,333.3 196.9,336.1 201.6,336.1 C202.4,336.1 203.1,336 203.9,335.7 L203.9,331 L200.2,331 L200.2,326.5 L210.1,326.5 L210.1,339.7 Z" id="Path"></path>
        </g>
    </g>
</svg>