<svg height="342" viewBox="0 0 282 342" width="282" xmlns="http://www.w3.org/2000/svg"><g transform="translate(.9 .9)"><path d="m93 167.2c-.7-.5-93-67.6-93-67.6v-99.6l140.6 109.4 140.3-109v99.6l-92.2 67.2h92l-.1 85h-280.6v-85z"/><path d="m0 272.4h6.4v19.2h9.9v4.7h-16.3z"/><path d="m26.2 272.4h7.9l9.2 23.9h-7l-1.8-5.1h-9l-1.9 5.1h-6.5zm3.9 4.9-3.1 9.4h6z"/><path d="m66.4 287.2c0 6.5-4.3 9.5-10.5 9.5s-10.5-3-10.5-9.5v-14.9h6.4v13.8c0 3.1.9 5.8 4.1 5.8 3.3 0 4.1-2.7 4.1-5.8v-13.8h6.4z"/><path d="m70.4 272.4h11.5c4.3 0 7.7 1.9 7.7 6 .3 2.9-1.7 5.5-4.6 6 2.1.6 2.2 2.4 3.4 5.3l2.3 6.5h-6.7l-1.4-4.3c-1.3-4.1-2.1-5.1-4.5-5.1h-1.3v9.5h-6.4zm6.4 9.9h1.7c2.1 0 4.7 0 4.7-2.8 0-2.2-2.2-2.6-4.7-2.6h-1.7z"/><path d="m93.3 272.4h16.8v4.5h-10.5v4.9h9.9v4.5h-9.9v5.3h10.9v4.5h-17.3v-23.7z"/><path d="m114.5 272.4h8.1l8.1 16.3-.1-16.3h5.8v23.9h-7.8l-8.4-16.4.2 16.4h-5.9z"/><path d="m161.1 295.8c-2.3.6-4.7 1-7.1 1-6.4 0-13.8-3.2-13.8-12.3 0-8.3 5.8-12.5 13.7-12.5 2.4.1 4.8.5 7.1 1.2l-.5 5.2c-1.9-1.1-4.1-1.7-6.2-1.7-4-.1-7.4 3-7.5 7.1v.7c0 4.7 3.3 7.5 8 7.5 2.1 0 4.1-.5 6-1.2z"/><path d="m163.8 272.4h16.9v4.5h-10.5v4.9h9.9v4.5h-9.9v5.3h10.9v4.5h-17.3z"/><path d="m195.4 272.4h6.4v9.8l7.2-9.8h7.7l-8.9 11.2 9.5 12.8h-8.1l-7.4-10.9v10.9h-6.4z"/><path d="m220.5 272.4h6.4v23.9h-6.4z"/><path d="m231.8 272.4h8.1l8.1 16.3-.1-16.3h5.8v23.9h-7.9l-8.4-16.4.2 16.4h-5.9z"/><path d="m280.5 295.7c-3 .8-6.1 1.1-9.3 1.1-6.4 0-13.8-3.2-13.8-12.3s6.4-12.5 15.1-12.5c2.5 0 4.9.3 7.2 1.1l-.5 5.2c-1.8-1-3.8-1.5-5.8-1.5-5.2 0-9.4 2.2-9.4 7.8 0 4.7 3.3 7.5 8 7.5.8 0 1.5-.1 2.3-.4v-4.7h-3.7v-4.5h9.9z"/><path d="m71.7 316.5h6.8l5.3 18.8 5.3-18.8h6.5l-8.2 23.9h-7.8z"/><path d="m98.2 316.5h16.9v4.5h-10.5v4.9h9.9v4.5h-9.9v5.3h10.9v4.5h-17.3z"/><path d="m119.1 316.5h11.4c4.3 0 7.7 1.9 7.7 6 .3 2.9-1.7 5.5-4.6 6 2.1.6 2.2 2.4 3.4 5.3l2.3 6.5h-6.7l-1.4-4.2c-1.3-4.1-2.1-5.1-4.5-5.1h-1.3v9.5h-6.3zm6.4 9.9h1.7c2.1 0 4.7 0 4.7-2.8 0-2.2-2.2-2.6-4.7-2.6h-1.7z"/><path d="m142.2 316.5h6.4v19.2h9.8v4.7h-16.2z"/><path d="m168.4 316.5h7.8l9.2 23.9h-7l-1.8-5.1h-8.9l-1.9 5.1h-6.5zm3.9 4.9-3.2 9.4h6z"/><path d="m210.1 339.7c-3 .8-6.1 1.1-9.3 1.1-6.4 0-13.8-3.2-13.8-12.3s6.4-12.5 15.1-12.5c2.5 0 4.9.3 7.2 1.1l-.5 5.2c-1.8-1-3.8-1.5-5.8-1.5-5.2 0-9.4 2.2-9.4 7.8 0 4.7 3.3 7.5 8 7.5.8 0 1.5-.1 2.3-.4v-4.7h-3.7v-4.5h9.9z"/></g></svg>